<svg width="187" height="77" viewBox="0 0 187 77" fill="none" xmlns="http://www.w3.org/2000/svg">
<g clip-path="url(#clip0_2636_3093)">
<path d="M15.8511 42L25.2111 21H30.0111L39.4011 42H34.3011L26.6211 23.46H28.5411L20.8311 42H15.8511ZM20.5311 37.5L21.8211 33.81H32.6211L33.9411 37.5H20.5311ZM40.2698 32.16L41.8538 26.4L42.3818 28.584C41.6938 28.584 41.1258 28.384 40.6778 27.984C40.2458 27.568 40.0298 27.008 40.0298 26.304C40.0298 25.616 40.2538 25.064 40.7018 24.648C41.1498 24.216 41.7018 24 42.3578 24C43.0298 24 43.5818 24.216 44.0138 24.648C44.4458 25.064 44.6618 25.616 44.6618 26.304C44.6618 26.512 44.6458 26.72 44.6138 26.928C44.5978 27.12 44.5418 27.352 44.4458 27.624C44.3658 27.896 44.2298 28.256 44.0378 28.704L42.6458 32.16H40.2698ZM55.7231 42.288C54.3951 42.288 53.1631 42.072 52.0271 41.64C50.9071 41.208 49.9311 40.6 49.0991 39.816C48.2831 39.032 47.6431 38.112 47.1791 37.056C46.7311 36 46.5071 34.848 46.5071 33.6C46.5071 32.352 46.7311 31.2 47.1791 30.144C47.6431 29.088 48.2911 28.168 49.1231 27.384C49.9551 26.6 50.9311 25.992 52.0511 25.56C53.1711 25.128 54.3871 24.912 55.6991 24.912C57.0271 24.912 58.2431 25.128 59.3471 25.56C60.4671 25.992 61.4351 26.6 62.2511 27.384C63.0831 28.168 63.7311 29.088 64.1951 30.144C64.6591 31.184 64.8911 32.336 64.8911 33.6C64.8911 34.848 64.6591 36.008 64.1951 37.08C63.7311 38.136 63.0831 39.056 62.2511 39.84C61.4351 40.608 60.4671 41.208 59.3471 41.64C58.2431 42.072 57.0351 42.288 55.7231 42.288ZM55.6991 38.976C56.4511 38.976 57.1391 38.848 57.7631 38.592C58.4031 38.336 58.9631 37.968 59.4431 37.488C59.9231 37.008 60.2911 36.44 60.5471 35.784C60.8191 35.128 60.9551 34.4 60.9551 33.6C60.9551 32.8 60.8191 32.072 60.5471 31.416C60.2911 30.76 59.9231 30.192 59.4431 29.712C58.9791 29.232 58.4271 28.864 57.7871 28.608C57.1471 28.352 56.4511 28.224 55.6991 28.224C54.9471 28.224 54.2511 28.352 53.6111 28.608C52.9871 28.864 52.4351 29.232 51.9551 29.712C51.4751 30.192 51.0991 30.76 50.8271 31.416C50.5711 32.072 50.4431 32.8 50.4431 33.6C50.4431 34.384 50.5711 35.112 50.8271 35.784C51.0991 36.44 51.4671 37.008 51.9311 37.488C52.4111 37.968 52.9711 38.336 53.6111 38.592C54.2511 38.848 54.9471 38.976 55.6991 38.976ZM67.6491 42V24.192H71.3931V42H67.6491ZM82.8878 42V39.48L82.6478 38.928V34.416C82.6478 33.616 82.3998 32.992 81.9038 32.544C81.4238 32.096 80.6798 31.872 79.6718 31.872C78.9838 31.872 78.3038 31.984 77.6318 32.208C76.9758 32.416 76.4158 32.704 75.9518 33.072L74.6078 30.456C75.3118 29.96 76.1598 29.576 77.1518 29.304C78.1438 29.032 79.1518 28.896 80.1758 28.896C82.1438 28.896 83.6718 29.36 84.7598 30.288C85.8478 31.216 86.3918 32.664 86.3918 34.632V42H82.8878ZM78.9518 42.192C77.9438 42.192 77.0798 42.024 76.3598 41.688C75.6398 41.336 75.0878 40.864 74.7038 40.272C74.3198 39.68 74.1278 39.016 74.1278 38.28C74.1278 37.512 74.3118 36.84 74.6798 36.264C75.0638 35.688 75.6638 35.24 76.4798 34.92C77.2958 34.584 78.3598 34.416 79.6718 34.416H83.1038V36.6H80.0798C79.1998 36.6 78.5918 36.744 78.2558 37.032C77.9358 37.32 77.7758 37.68 77.7758 38.112C77.7758 38.592 77.9598 38.976 78.3278 39.264C78.7118 39.536 79.2318 39.672 79.8878 39.672C80.5118 39.672 81.0718 39.528 81.5678 39.24C82.0638 38.936 82.4238 38.496 82.6478 37.92L83.2238 39.648C82.9518 40.48 82.4558 41.112 81.7358 41.544C81.0158 41.976 80.0878 42.192 78.9518 42.192ZM101.073 42L95.5772 25.2H99.6092L104.385 40.08H102.369L107.361 25.2H110.961L115.761 40.08H113.817L118.713 25.2H122.433L116.937 42H112.761L108.513 28.944H109.617L105.249 42H101.073ZM129.623 42.192C128.247 42.192 127.023 41.904 125.951 41.328C124.895 40.752 124.055 39.968 123.431 38.976C122.823 37.968 122.519 36.824 122.519 35.544C122.519 34.248 122.823 33.104 123.431 32.112C124.055 31.104 124.895 30.32 125.951 29.76C127.023 29.184 128.247 28.896 129.623 28.896C130.983 28.896 132.199 29.184 133.271 29.76C134.343 30.32 135.183 31.096 135.791 32.088C136.399 33.08 136.703 34.232 136.703 35.544C136.703 36.824 136.399 37.968 135.791 38.976C135.183 39.968 134.343 40.752 133.271 41.328C132.199 41.904 130.983 42.192 129.623 42.192ZM129.623 39.12C130.247 39.12 130.807 38.976 131.303 38.688C131.799 38.4 132.191 37.992 132.479 37.464C132.767 36.92 132.911 36.28 132.911 35.544C132.911 34.792 132.767 34.152 132.479 33.624C132.191 33.096 131.799 32.688 131.303 32.4C130.807 32.112 130.247 31.968 129.623 31.968C128.999 31.968 128.439 32.112 127.943 32.4C127.447 32.688 127.047 33.096 126.743 33.624C126.455 34.152 126.311 34.792 126.311 35.544C126.311 36.28 126.455 36.92 126.743 37.464C127.047 37.992 127.447 38.4 127.943 38.688C128.439 38.976 128.999 39.12 129.623 39.12ZM139.305 42V29.088H142.881V32.736L142.377 31.68C142.761 30.768 143.377 30.08 144.225 29.616C145.073 29.136 146.105 28.896 147.321 28.896V32.352C147.161 32.336 147.017 32.328 146.889 32.328C146.761 32.312 146.625 32.304 146.481 32.304C145.457 32.304 144.625 32.6 143.985 33.192C143.361 33.768 143.049 34.672 143.049 35.904V42H139.305ZM149.671 42V24.192H153.415V42H149.671ZM162.534 42.192C161.318 42.192 160.222 41.92 159.246 41.376C158.27 40.816 157.494 40.04 156.918 39.048C156.358 38.056 156.078 36.888 156.078 35.544C156.078 34.184 156.358 33.008 156.918 32.016C157.494 31.024 158.27 30.256 159.246 29.712C160.222 29.168 161.318 28.896 162.534 28.896C163.622 28.896 164.574 29.136 165.39 29.616C166.206 30.096 166.838 30.824 167.286 31.8C167.734 32.776 167.958 34.024 167.958 35.544C167.958 37.048 167.742 38.296 167.31 39.288C166.878 40.264 166.254 40.992 165.438 41.472C164.638 41.952 163.67 42.192 162.534 42.192ZM163.182 39.12C163.79 39.12 164.342 38.976 164.838 38.688C165.334 38.4 165.726 37.992 166.014 37.464C166.318 36.92 166.47 36.28 166.47 35.544C166.47 34.792 166.318 34.152 166.014 33.624C165.726 33.096 165.334 32.688 164.838 32.4C164.342 32.112 163.79 31.968 163.182 31.968C162.558 31.968 161.998 32.112 161.502 32.4C161.006 32.688 160.606 33.096 160.302 33.624C160.014 34.152 159.87 34.792 159.87 35.544C159.87 36.28 160.014 36.92 160.302 37.464C160.606 37.992 161.006 38.4 161.502 38.688C161.998 38.976 162.558 39.12 163.182 39.12ZM166.566 42V39.36L166.638 35.52L166.398 31.704V24.192H170.142V42H166.566Z" fill="#252B42"/>
<path d="M23.525 63.968H31.613V66.992H23.525V63.968ZM23.813 70.88H32.957V74H19.949V57.2H32.645V60.32H23.813V70.88ZM44.2603 74.192C43.0443 74.192 41.9483 73.92 40.9723 73.376C39.9963 72.816 39.2203 72.04 38.6443 71.048C38.0843 70.056 37.8043 68.888 37.8043 67.544C37.8043 66.184 38.0843 65.008 38.6443 64.016C39.2203 63.024 39.9963 62.256 40.9723 61.712C41.9483 61.168 43.0443 60.896 44.2603 60.896C45.3483 60.896 46.3003 61.136 47.1163 61.616C47.9323 62.096 48.5643 62.824 49.0123 63.8C49.4603 64.776 49.6843 66.024 49.6843 67.544C49.6843 69.048 49.4683 70.296 49.0363 71.288C48.6043 72.264 47.9803 72.992 47.1643 73.472C46.3643 73.952 45.3963 74.192 44.2603 74.192ZM44.9083 71.12C45.5163 71.12 46.0683 70.976 46.5643 70.688C47.0603 70.4 47.4523 69.992 47.7403 69.464C48.0443 68.92 48.1963 68.28 48.1963 67.544C48.1963 66.792 48.0443 66.152 47.7403 65.624C47.4523 65.096 47.0603 64.688 46.5643 64.4C46.0683 64.112 45.5163 63.968 44.9083 63.968C44.2843 63.968 43.7243 64.112 43.2283 64.4C42.7323 64.688 42.3323 65.096 42.0283 65.624C41.7403 66.152 41.5963 66.792 41.5963 67.544C41.5963 68.28 41.7403 68.92 42.0283 69.464C42.3323 69.992 42.7323 70.4 43.2283 70.688C43.7243 70.976 44.2843 71.12 44.9083 71.12ZM48.2923 74V71.36L48.3643 67.52L48.1243 63.704V56.192H51.8683V74H48.2923ZM63.7815 74.192C62.7095 74.192 61.7495 73.984 60.9015 73.568C60.0695 73.152 59.4215 72.52 58.9575 71.672C58.4935 70.808 58.2615 69.712 58.2615 68.384V61.088H62.0055V67.832C62.0055 68.904 62.2295 69.696 62.6775 70.208C63.1415 70.704 63.7895 70.952 64.6215 70.952C65.1975 70.952 65.7095 70.832 66.1575 70.592C66.6055 70.336 66.9575 69.952 67.2135 69.44C67.4695 68.912 67.5975 68.256 67.5975 67.472V61.088H71.3415V74H67.7895V70.448L68.4375 71.48C68.0055 72.376 67.3655 73.056 66.5175 73.52C65.6855 73.968 64.7735 74.192 63.7815 74.192ZM84.05 74.192C82.658 74.192 81.418 73.912 80.33 73.352C79.242 72.776 78.386 71.984 77.762 70.976C77.154 69.968 76.85 68.824 76.85 67.544C76.85 66.248 77.154 65.104 77.762 64.112C78.386 63.104 79.242 62.32 80.33 61.76C81.418 61.184 82.658 60.896 84.05 60.896C85.41 60.896 86.594 61.184 87.602 61.76C88.61 62.32 89.354 63.128 89.834 64.184L86.93 65.744C86.594 65.136 86.17 64.688 85.658 64.4C85.162 64.112 84.618 63.968 84.026 63.968C83.386 63.968 82.81 64.112 82.298 64.4C81.786 64.688 81.378 65.096 81.074 65.624C80.786 66.152 80.642 66.792 80.642 67.544C80.642 68.296 80.786 68.936 81.074 69.464C81.378 69.992 81.786 70.4 82.298 70.688C82.81 70.976 83.386 71.12 84.026 71.12C84.618 71.12 85.162 70.984 85.658 70.712C86.17 70.424 86.594 69.968 86.93 69.344L89.834 70.928C89.354 71.968 88.61 72.776 87.602 73.352C86.594 73.912 85.41 74.192 84.05 74.192ZM102.91 74V71.48L102.67 70.928V66.416C102.67 65.616 102.422 64.992 101.926 64.544C101.446 64.096 100.702 63.872 99.6937 63.872C99.0057 63.872 98.3257 63.984 97.6537 64.208C96.9977 64.416 96.4377 64.704 95.9737 65.072L94.6297 62.456C95.3337 61.96 96.1817 61.576 97.1737 61.304C98.1657 61.032 99.1737 60.896 100.198 60.896C102.166 60.896 103.694 61.36 104.782 62.288C105.87 63.216 106.414 64.664 106.414 66.632V74H102.91ZM98.9737 74.192C97.9657 74.192 97.1017 74.024 96.3817 73.688C95.6617 73.336 95.1097 72.864 94.7257 72.272C94.3417 71.68 94.1497 71.016 94.1497 70.28C94.1497 69.512 94.3337 68.84 94.7017 68.264C95.0857 67.688 95.6857 67.24 96.5017 66.92C97.3177 66.584 98.3817 66.416 99.6937 66.416H103.126V68.6H100.102C99.2217 68.6 98.6137 68.744 98.2777 69.032C97.9577 69.32 97.7977 69.68 97.7977 70.112C97.7977 70.592 97.9817 70.976 98.3497 71.264C98.7337 71.536 99.2537 71.672 99.9097 71.672C100.534 71.672 101.094 71.528 101.59 71.24C102.086 70.936 102.446 70.496 102.67 69.92L103.246 71.648C102.974 72.48 102.478 73.112 101.758 73.544C101.038 73.976 100.11 74.192 98.9737 74.192ZM118.082 74.192C116.562 74.192 115.378 73.808 114.53 73.04C113.682 72.256 113.258 71.096 113.258 69.56V58.232H117.002V69.512C117.002 70.056 117.146 70.48 117.434 70.784C117.722 71.072 118.114 71.216 118.61 71.216C119.202 71.216 119.706 71.056 120.122 70.736L121.13 73.376C120.746 73.648 120.282 73.856 119.738 74C119.21 74.128 118.658 74.192 118.082 74.192ZM111.266 64.256V61.376H120.218V64.256H111.266ZM126.232 74V61.088H129.976V74H126.232ZM128.104 59.288C127.416 59.288 126.856 59.088 126.424 58.688C125.992 58.288 125.776 57.792 125.776 57.2C125.776 56.608 125.992 56.112 126.424 55.712C126.856 55.312 127.416 55.112 128.104 55.112C128.792 55.112 129.352 55.304 129.784 55.688C130.216 56.056 130.432 56.536 130.432 57.128C130.432 57.752 130.216 58.272 129.784 58.688C129.368 59.088 128.808 59.288 128.104 59.288ZM142.595 74.192C141.219 74.192 139.995 73.904 138.923 73.328C137.867 72.752 137.027 71.968 136.403 70.976C135.795 69.968 135.491 68.824 135.491 67.544C135.491 66.248 135.795 65.104 136.403 64.112C137.027 63.104 137.867 62.32 138.923 61.76C139.995 61.184 141.219 60.896 142.595 60.896C143.955 60.896 145.171 61.184 146.243 61.76C147.315 62.32 148.155 63.096 148.763 64.088C149.371 65.08 149.675 66.232 149.675 67.544C149.675 68.824 149.371 69.968 148.763 70.976C148.155 71.968 147.315 72.752 146.243 73.328C145.171 73.904 143.955 74.192 142.595 74.192ZM142.595 71.12C143.219 71.12 143.779 70.976 144.275 70.688C144.771 70.4 145.163 69.992 145.451 69.464C145.739 68.92 145.883 68.28 145.883 67.544C145.883 66.792 145.739 66.152 145.451 65.624C145.163 65.096 144.771 64.688 144.275 64.4C143.779 64.112 143.219 63.968 142.595 63.968C141.971 63.968 141.411 64.112 140.915 64.4C140.419 64.688 140.019 65.096 139.715 65.624C139.427 66.152 139.283 66.792 139.283 67.544C139.283 68.28 139.427 68.92 139.715 69.464C140.019 69.992 140.419 70.4 140.915 70.688C141.411 70.976 141.971 71.12 142.595 71.12ZM163.025 60.896C164.049 60.896 164.961 61.104 165.761 61.52C166.577 61.92 167.217 62.544 167.681 63.392C168.145 64.224 168.377 65.296 168.377 66.608V74H164.633V67.184C164.633 66.144 164.401 65.376 163.937 64.88C163.489 64.384 162.849 64.136 162.017 64.136C161.425 64.136 160.889 64.264 160.409 64.52C159.945 64.76 159.577 65.136 159.305 65.648C159.049 66.16 158.921 66.816 158.921 67.616V74H155.177V61.088H158.753V64.664L158.081 63.584C158.545 62.72 159.209 62.056 160.073 61.592C160.937 61.128 161.921 60.896 163.025 60.896Z" fill="#235DB4"/>
<line x1="76" y1="51" x2="174" y2="51" stroke="#252B42" stroke-width="2" stroke-linecap="round"/>
</g>
<defs>
<clipPath id="clip0_2636_3093">
<rect width="187" height="77" fill="white"/>
</clipPath>
</defs>
</svg>
